<svg width="101" height="29" viewBox="0 0 101 29" fill="none" xmlns="http://www.w3.org/2000/svg">
<path d="M7.3 28.2C5.18 28.2 3.57333 27.62 2.48 26.46C1.4 25.3 0.86 23.7333 0.86 21.76C0.86 20.3467 1.08667 19.1333 1.54 18.12C2.00667 17.0933 2.71333 16.3067 3.66 15.76C4.60667 15.2 5.81333 14.92 7.28 14.92C8.02667 14.92 8.70667 14.98 9.32 15.1C9.94667 15.2067 10.5267 15.3533 11.06 15.54V17.44C10.5267 17.2267 9.95333 17.0667 9.34 16.96C8.74 16.84 8.10667 16.78 7.44 16.78C5.84 16.78 4.70667 17.2067 4.04 18.06C3.38667 18.9133 3.06 20.1467 3.06 21.76C3.06 23.2667 3.42 24.4133 4.14 25.2C4.86 25.9733 5.97333 26.36 7.48 26.36C8.09333 26.36 8.70667 26.3133 9.32 26.22C9.94667 26.1133 10.5333 25.9533 11.08 25.74V27.66C10.5467 27.8333 9.96667 27.9667 9.34 28.06C8.72667 28.1533 8.04667 28.2 7.3 28.2ZM40.8498 28V15.12H42.7698L49.4898 24.6V15.12H51.6498V28H49.7298L43.0298 18.54V28H40.8498ZM54.1897 28V15.12H56.1097L62.8297 24.6V15.12H64.9897V28H63.0697L56.3697 18.54V28H54.1897ZM67.5295 28V15.12H76.5095V16.82H69.7095V20.72H75.7695V22.4H69.7095V26.32H76.5095V28H67.5295ZM84.3703 28.2C82.2503 28.2 80.6436 27.62 79.5503 26.46C78.4703 25.3 77.9303 23.7333 77.9303 21.76C77.9303 20.3467 78.157 19.1333 78.6103 18.12C79.077 17.0933 79.7836 16.3067 80.7303 15.76C81.677 15.2 82.8836 14.92 84.3503 14.92C85.097 14.92 85.777 14.98 86.3903 15.1C87.017 15.2067 87.597 15.3533 88.1303 15.54V17.44C87.597 17.2267 87.0236 17.0667 86.4103 16.96C85.8103 16.84 85.177 16.78 84.5103 16.78C82.9103 16.78 81.777 17.2067 81.1103 18.06C80.457 18.9133 80.1303 20.1467 80.1303 21.76C80.1303 23.2667 80.4903 24.4133 81.2103 25.2C81.9303 25.9733 83.0436 26.36 84.5503 26.36C85.1636 26.36 85.777 26.3133 86.3903 26.22C87.017 26.1133 87.6036 25.9533 88.1503 25.74V27.66C87.617 27.8333 87.037 27.9667 86.4103 28.06C85.797 28.1533 85.117 28.2 84.3703 28.2ZM93.6039 28V16.82H89.4839V15.12H99.8839V16.82H95.7839V28H93.6039Z" fill="black"/>
<path d="M7.30011 13.28C5.18011 13.28 3.57344 12.7 2.48011 11.54C1.40011 10.38 0.860107 8.81333 0.860107 6.84C0.860107 5.42667 1.08677 4.21333 1.54011 3.2C2.00677 2.17333 2.71344 1.38667 3.66011 0.84C4.60677 0.28 5.81344 0 7.28011 0C8.02677 0 8.70677 0.06 9.32011 0.18C9.94677 0.286667 10.5268 0.433334 11.0601 0.62V2.52C10.5268 2.30667 9.95344 2.14667 9.34011 2.04C8.74011 1.92 8.10677 1.86 7.44011 1.86C5.84011 1.86 4.70677 2.28667 4.04011 3.14C3.38677 3.99333 3.06011 5.22667 3.06011 6.84C3.06011 8.34667 3.42011 9.49333 4.14011 10.28C4.86011 11.0533 5.97344 11.44 7.48011 11.44C8.09344 11.44 8.70677 11.3933 9.32011 11.3C9.94677 11.1933 10.5334 11.0333 11.0801 10.82V12.74C10.5468 12.9133 9.96677 13.0467 9.34011 13.14C8.72677 13.2333 8.04677 13.28 7.30011 13.28Z" fill="black"/>
<path d="M13.0129 13.08L17.9329 0.2H20.3729L25.2529 13.08H23.0129L21.7329 9.76H16.5529L15.2729 13.08H13.0129ZM16.8929 8.08H21.3729L19.1329 2.18L16.8929 8.08Z" fill="black"/>
<path d="M28.3968 13.08V0.2H30.6368L34.7168 8.54L38.7768 0.2H41.0168V13.08H38.8568V3.74L35.3768 10.86H34.0568L30.5568 3.74V13.08H28.3968Z" fill="black"/>
<path d="M44.5335 13.08V0.2L68.9801 0.16C69.9668 0.16 70.7801 0.346667 71.4201 0.72C72.0601 1.09333 72.5334 1.60667 72.8401 2.26C73.1468 2.9 73.3001 3.63333 73.3001 4.46C73.3001 5.74 72.9001 6.76667 72.1001 7.54C71.3134 8.31333 70.2468 8.7 68.9001 8.7L46.7135 8.74V13.08H44.5335ZM46.7135 7.02L68.5001 6.98C69.3668 6.98 70.0201 6.75333 70.4601 6.3C70.9001 5.84667 71.1201 5.23333 71.1201 4.46C71.1201 3.63333 70.9068 2.99333 70.4801 2.54C70.0668 2.08667 69.4401 1.86 68.6001 1.86L46.7135 1.9V7.02Z" fill="black"/>
<path d="M82.2679 13.28C80.4946 13.28 79.1146 12.8533 78.1279 12C77.1546 11.1467 76.6679 9.91333 76.6679 8.3V0.2H78.8479V8.22C78.8479 9.3 79.1413 10.1067 79.7279 10.64C80.3279 11.1733 81.1746 11.44 82.2679 11.44C83.3479 11.44 84.1813 11.1733 84.7679 10.64C85.3679 10.1067 85.6679 9.3 85.6679 8.22V0.2H87.8279V8.3C87.8279 9.91333 87.3413 11.1467 86.3679 12C85.3946 12.8533 84.0279 13.28 82.2679 13.28Z" fill="black"/>
<path d="M95.1445 13.28C93.4778 13.28 92.1378 13.0667 91.1245 12.64V10.72C91.6978 10.9333 92.3112 11.1067 92.9645 11.24C93.6312 11.3733 94.2911 11.44 94.9445 11.44C95.9711 11.44 96.7378 11.32 97.2445 11.08C97.7645 10.84 98.0245 10.36 98.0245 9.64C98.0245 9.2 97.9178 8.84667 97.7045 8.58C97.4911 8.31333 97.1378 8.08667 96.6445 7.9C96.1512 7.7 95.4712 7.49333 94.6045 7.28C93.2178 6.92 92.2445 6.46667 91.6845 5.92C91.1245 5.36 90.8445 4.59333 90.8445 3.62C90.8445 2.48667 91.2578 1.6 92.0845 0.960001C92.9111 0.32 94.1445 0 95.7845 0C96.5312 0 97.2312 0.0533334 97.8845 0.16C98.5512 0.266667 99.0711 0.386667 99.4445 0.52V2.44C98.4311 2.05333 97.3111 1.86 96.0845 1.86C95.1245 1.86 94.3778 1.98667 93.8445 2.24C93.3111 2.49333 93.0445 2.95333 93.0445 3.62C93.0445 4.00667 93.1378 4.32 93.3245 4.56C93.5112 4.8 93.8312 5.00667 94.2845 5.18C94.7512 5.35333 95.3911 5.54667 96.2045 5.76C97.2578 6.02667 98.0712 6.34667 98.6445 6.72C99.2312 7.08 99.6378 7.50667 99.8645 8C100.104 8.48 100.224 9.02667 100.224 9.64C100.224 10.7733 99.8045 11.6667 98.9645 12.32C98.1245 12.96 96.8512 13.28 95.1445 13.28Z" fill="black"/>
<path d="M20 17.08H33C35.7614 17.08 38 19.3185 38 22.08C38 24.8414 35.7614 27.08 33 27.08H20C17.2386 27.08 15 24.8414 15 22.08C15 19.3185 17.2386 17.08 20 17.08Z" stroke="black" stroke-width="2"/>
</svg>
