<svg width="529" height="201" viewBox="0 0 529 201" fill="none" xmlns="http://www.w3.org/2000/svg">
<path d="M0 25.3995L68.6055 20.9995V0.150333H0L0 25.3995Z" fill="#5C1E2D"/>
<path d="M0 25.3995L68.6055 20.9995V0.150333H0L0 25.3995Z" fill="#5C1E2D"/>
<path d="M38.2266 47.6429L106.832 40.7036V0.150448H38.2266V47.6429Z" fill="#A5455D"/>
<path d="M38.2266 47.6429L106.832 40.7036V0.150448H38.2266V47.6429Z" fill="#A5455D"/>
<path d="M94.5781 87.3199L292.164 59.3598L422.414 0.150223H94.5781V87.3199Z" fill="#933049"/>
<path d="M94.5781 87.3199L292.164 59.3598L422.414 0.150223H94.5781V87.3199Z" fill="#933049"/>
<path d="M205.82 151.044L367.533 116.684L367.533 0.15033H205.82V151.044Z" fill="#B9B7B7"/>
<path d="M205.82 151.044L367.533 116.684L367.533 0.15033H205.82V151.044Z" fill="#B83556"/>
<path d="M338.617 200.34L528.997 142.477V0H338.617V200.34Z" fill="#DC97A5"/>
<path d="M338.617 200.34L528.997 142.477V0H338.617V200.34Z" fill="#DC97A5"/>
</svg>
