<svg width="529" height="201" viewBox="0 0 529 201" fill="none" xmlns="http://www.w3.org/2000/svg">
<path d="M529 25.3995L460.395 20.9995V0.150333L529 0.150333V25.3995Z" fill="#5C1E2D"/>
<path d="M529 25.3995L460.395 20.9995V0.150333L529 0.150333V25.3995Z" fill="#5C1E2D"/>
<path d="M490.773 47.6429L422.168 40.7036V0.150448L490.773 0.150448V47.6429Z" fill="#A5455D"/>
<path d="M490.773 47.6429L422.168 40.7036V0.150448L490.773 0.150448V47.6429Z" fill="#A5455D"/>
<path d="M434.422 87.3199L236.836 59.3598L106.586 0.150223L434.422 0.150223V87.3199Z" fill="#933049"/>
<path d="M434.422 87.3199L236.836 59.3598L106.586 0.150223L434.422 0.150223V87.3199Z" fill="#933049"/>
<path d="M323.188 151.044L161.475 116.684L161.475 0.15033L323.188 0.15033V151.044Z" fill="#B9B7B7"/>
<path d="M323.188 151.044L161.475 116.684L161.475 0.15033L323.188 0.15033V151.044Z" fill="#B83556"/>
<path d="M190.383 200.34L0.00265503 142.477L0.00265503 0L190.383 0L190.383 200.34Z" fill="#DC97A5"/>
<path d="M190.383 200.34L0.00265503 142.477L0.00265503 0L190.383 0L190.383 200.34Z" fill="#DC97A5"/>
</svg>
