<svg width="40" height="37" viewBox="0 0 40 37" fill="none" xmlns="http://www.w3.org/2000/svg">
<g clip-path="url(#clip0_392_8909)">
<path d="M31.0218 0H8.97818C4.01967 0 0 3.71819 0 8.30481V28.6952C0 33.2818 4.01967 37 8.97818 37H31.0218C35.9803 37 40 33.2818 40 28.6952V8.30481C40 3.71819 35.9803 0 31.0218 0Z" fill="black"/>
<path d="M11.0879 15.3793H15.2444V27.7852H11.0879V15.3793ZM13.2077 9.21472C13.6839 9.21473 14.1495 9.3452 14.5456 9.58967C14.9418 9.83415 15.2508 10.1817 15.4337 10.5884C15.6165 10.9951 15.6651 11.4429 15.5732 11.8751C15.4813 12.3073 15.253 12.7047 14.9173 13.017C14.5815 13.3294 14.1532 13.5428 13.6865 13.6303C13.2197 13.7178 12.7355 13.6754 12.2947 13.5086C11.854 13.3418 11.4765 13.058 11.2099 12.6929C10.9434 12.3279 10.7997 11.898 10.7969 11.4575C10.7951 11.1636 10.8561 10.8723 10.9764 10.6002C11.0968 10.3282 11.2741 10.0808 11.4981 9.8724C11.7222 9.66396 11.9885 9.49856 12.2819 9.38569C12.5753 9.27282 12.89 9.21472 13.2077 9.21472ZM17.9046 15.3793H21.9088V17.071C22.3096 16.4382 22.8887 15.9181 23.5841 15.5659C24.2796 15.2138 25.0653 15.043 25.8575 15.0717C30.0141 15.0717 30.8593 17.6349 30.8593 20.9799V27.7852H26.7027V21.7873C26.7027 20.3519 26.7027 18.4936 24.5413 18.4936C22.3799 18.4936 22.0473 20.0571 22.0473 21.6719V27.8108H17.8908L17.9046 15.3793Z" fill="#FFC654"/>
</g>
<defs>
<clipPath id="clip0_392_8909">
<rect width="40" height="37" fill="white"/>
</clipPath>
</defs>
</svg>
