<svg width="150" height="120" viewBox="0 0 150 120" fill="none" xmlns="http://www.w3.org/2000/svg">
<g clip-path="url(#clip0_388_8705)">
<path fill-rule="evenodd" clip-rule="evenodd" d="M-12.1639 91.4892L11.82 80.3731C16.3211 78.2869 20.8982 76.8075 25.8456 78.0917C31.3616 79.5228 40.3689 82.5956 49.5546 83.9208C52.9642 84.8051 55.0897 87.5365 54.1622 90.3059C53.2343 93.0757 50.309 94.5038 46.1811 93.9928L49.3923 94.4039C53.0717 94.8748 56.4514 94.4719 59.6717 92.9714L82.7307 82.2267C100.655 73.8753 103.288 86.7235 97.3282 89.6588L55.4817 110.273C51.6329 112.168 47.4215 112.611 43.0557 111.675L12.703 105.168L1.46235 110.36C-0.698879 111.358 -3.47945 110.762 -4.7272 109.033L-13.8168 96.4383C-15.0634 94.711 -14.3213 92.4893 -12.1639 91.4892Z" fill="black"/>
<path fill-rule="evenodd" clip-rule="evenodd" d="M53.6152 91.4548C52.3335 93.4587 49.6926 94.4274 46.1811 93.9928C41.2091 92.9412 36.243 91.8626 31.2751 90.7978C29.9445 90.5126 29.1549 89.4185 29.5115 88.354C29.868 87.2895 31.2356 86.6578 32.5663 86.9431L53.6152 91.4548ZM-12.1639 91.4892L11.82 80.3731C16.3211 78.2869 20.8982 76.8075 25.8456 78.0917C28.7966 78.8571 32.7473 80.0928 37.1899 81.2792L-9.27027 102.738L-13.8168 96.4383C-15.0634 94.711 -14.3213 92.4893 -12.1639 91.4892Z" fill="#F1DFBC"/>
<path fill-rule="evenodd" clip-rule="evenodd" d="M25.6216 89.9597L44.6426 116.847C45.5622 118.147 44.985 119.813 43.3599 120.548L36.89 123.477C35.2649 124.213 33.1828 123.752 32.2632 122.452L13.2425 95.5646C12.3228 94.2645 12.9 92.5988 14.5248 91.8631L20.9947 88.9339C22.6198 88.1979 24.7019 88.6597 25.6216 89.9597Z" fill="#D6D4D1"/>
<path fill-rule="evenodd" clip-rule="evenodd" d="M35.6226 108.433L38.9894 113.192L42.3184 117.898C43.2362 119.195 42.6632 120.857 41.0457 121.595L43.3569 120.549C44.982 119.813 45.5592 118.147 44.6396 116.847L41.2991 112.125L34.5916 102.644L27.8765 93.1524L25.6183 89.9605C24.8217 88.8343 23.1526 88.3374 21.6641 88.703L25.5737 94.2294L32.2812 103.711L35.6217 108.433L35.6226 108.433Z" fill="#B5B4B1"/>
<path d="M65.9473 9.73999H56.0156V26.9478H65.9473V9.73999Z" fill="#A7A39B"/>
<path d="M65.9453 9.73999H63.0156V26.9478H65.9453V9.73999Z" fill="#837F76"/>
<path fill-rule="evenodd" clip-rule="evenodd" d="M53.9336 12.7296H68.0263C69.0396 12.7296 69.8661 11.9733 69.8661 11.0459V8.43375C69.8661 7.50633 69.0396 6.75 68.0263 6.75H53.9336C52.9202 6.75 52.0938 7.50633 52.0938 8.43375V11.0459C52.0935 11.9733 52.9202 12.7296 53.9336 12.7296Z" fill="#837F76"/>
<path fill-rule="evenodd" clip-rule="evenodd" d="M53.9336 12.7296H68.0263C69.0396 12.7296 69.8661 11.9733 69.8661 11.0459V8.43375C69.8661 7.50633 69.0396 6.75 68.0263 6.75H66.9364V8.70211C66.9364 9.62953 66.11 10.3859 65.0966 10.3859H52.0938V11.0459C52.0935 11.9733 52.9202 12.7296 53.9336 12.7296Z" fill="#636363"/>
<path fill-rule="evenodd" clip-rule="evenodd" d="M90.372 21.991L94.7929 25.5277C95.5095 26.101 95.5095 27.0361 94.7929 27.6094L86.4837 34.2567L79.4609 28.6385L87.7701 21.9912C88.4867 21.4177 89.6557 21.4177 90.372 21.991Z" fill="#A7A39B"/>
<path fill-rule="evenodd" clip-rule="evenodd" d="M90.3766 21.991L94.7975 25.5277C95.5141 26.101 95.5141 27.0362 94.7975 27.6094L86.4883 34.2568L85.0234 33.0849L91.8678 27.6094C92.5844 27.0362 92.5844 26.101 91.8678 25.5277L87.6109 22.1222L87.775 21.991C88.4913 21.4177 89.6602 21.4177 90.3766 21.991Z" fill="#837F76"/>
<path fill-rule="evenodd" clip-rule="evenodd" d="M27.1703 25.5275L31.5912 21.9908C32.3078 21.4175 33.4767 21.4175 34.193 21.9908L42.5022 28.6381L35.4794 34.2563L27.1703 27.609C26.4537 27.0359 26.4537 26.1008 27.1703 25.5275Z" fill="#A7A39B"/>
<path fill-rule="evenodd" clip-rule="evenodd" d="M27.1703 25.5275L31.5912 21.9908C32.3078 21.4175 33.4767 21.4175 34.193 21.9908L42.5022 28.6381L41.0374 29.81L34.193 24.3345C33.4764 23.7612 32.3075 23.7612 31.5912 24.3345L27.3343 27.74L27.1703 27.6087C26.4537 27.0359 26.4537 26.1008 27.1703 25.5275Z" fill="#837F76"/>
<path d="M60.9824 79.9461C82.3177 79.9461 99.6133 66.1096 99.6133 49.0414C99.6133 31.9732 82.3177 18.1367 60.9824 18.1367C39.6472 18.1367 22.3516 31.9732 22.3516 49.0414C22.3516 66.1096 39.6472 79.9461 60.9824 79.9461Z" fill="#FFD277"/>
<path fill-rule="evenodd" clip-rule="evenodd" d="M60.9819 18.1367C82.3171 18.1367 99.6128 31.9733 99.6128 49.0414C99.6128 66.1095 82.3171 79.9461 60.9819 79.9461C60.5539 79.9461 60.1279 79.9386 59.7031 79.9276C80.4462 79.3878 97.0555 65.7673 97.0555 49.0416C97.0555 32.3159 80.4462 18.6955 59.7031 18.1557C60.1279 18.1442 60.5536 18.1367 60.9819 18.1367Z" fill="#FFC654"/>
<path d="M60.9855 73.1109C77.602 73.1109 91.0725 62.3346 91.0725 49.0413C91.0725 35.748 77.602 24.9717 60.9855 24.9717C44.3689 24.9717 30.8984 35.748 30.8984 49.0413C30.8984 62.3346 44.3689 73.1109 60.9855 73.1109Z" fill="#F1EFEC"/>
<path fill-rule="evenodd" clip-rule="evenodd" d="M60.9855 24.9717C61.4141 24.9717 61.84 24.9806 62.2643 24.9949C46.2415 25.5311 33.4558 36.0911 33.4558 49.0413C33.4558 61.9914 46.2412 72.5517 62.2643 73.0879C61.84 73.102 61.4141 73.1111 60.9855 73.1111C44.3691 73.1111 30.8984 62.3346 30.8984 49.0415C30.8984 35.7482 44.3691 24.9717 60.9855 24.9717Z" fill="#D6D4D1"/>
<path fill-rule="evenodd" clip-rule="evenodd" d="M62.7825 49.0413C62.7825 48.2482 61.9769 47.6041 60.9864 47.6041C59.9958 47.6041 59.1907 48.2484 59.1907 49.0413C59.1907 49.8333 59.9958 50.4773 60.9864 50.4773C61.9769 50.4773 62.7825 49.8333 62.7825 49.0413ZM72.6497 39.7097C73.5653 40.4421 73.5653 41.629 72.6497 42.3614L66.9169 46.9476C67.2714 47.5884 67.47 48.2965 67.47 49.0411C67.47 51.9011 64.5612 54.2276 60.9861 54.2276C57.4116 54.2276 54.5027 51.9011 54.5027 49.0411C54.5027 46.181 57.4116 43.8536 60.9861 43.8536C61.9168 43.8536 62.801 44.0126 63.602 44.2959L69.3351 39.7097C70.2512 38.9772 71.7348 38.9772 72.6497 39.7097ZM39.5463 47.1661H36.9398C35.6448 47.1661 34.5957 48.0054 34.5957 49.0413C34.5957 50.0758 35.6448 50.9154 36.9398 50.9154H39.5463C40.8406 50.9154 41.8898 50.0758 41.8898 49.0413C41.8898 48.0056 40.8406 47.1661 39.5463 47.1661ZM60.9864 64.3181C59.6923 64.3181 58.6426 65.1574 58.6426 66.1931V68.2779C58.6426 69.3136 59.6923 70.1531 60.9864 70.1531C62.281 70.1531 63.3304 69.3138 63.3304 68.2779V66.1931C63.3301 65.1574 62.281 64.3181 60.9864 64.3181ZM82.4267 50.9154H85.0335C86.3276 50.9154 87.3767 50.0758 87.3767 49.0413C87.3767 48.0056 86.3276 47.1661 85.0335 47.1661H82.4267C81.1321 47.1661 80.0829 48.0054 80.0829 49.0413C80.0826 50.0758 81.1321 50.9154 82.4267 50.9154ZM44.1685 38.2385C44.6261 38.6046 45.2264 38.7879 45.8261 38.7879C46.4255 38.7879 47.0255 38.6048 47.4828 38.2385C48.3984 37.5061 48.3984 36.3192 47.4828 35.5868L45.6398 34.1121C44.7245 33.3797 43.2403 33.3797 42.3254 34.1121C41.4099 34.8445 41.4099 36.0314 42.3254 36.7638L44.1685 38.2385ZM44.1685 59.8432L42.3254 61.3179C41.4099 62.0503 41.4099 63.2372 42.3254 63.9696C42.7827 64.3357 43.3827 64.519 43.9824 64.519C44.5824 64.519 45.1824 64.3359 45.6398 63.9696L47.4828 62.4949C48.3984 61.7636 48.3984 60.5756 47.4834 59.8432C46.5679 59.1119 45.084 59.1119 44.1685 59.8432ZM77.8039 59.8432C76.8884 59.1108 75.4045 59.1119 74.489 59.8432C73.5738 60.5756 73.5746 61.7634 74.4896 62.4949L76.3326 63.9696C76.7903 64.3357 77.3905 64.519 77.99 64.519C78.59 64.519 79.19 64.3359 79.6473 63.9696C80.5628 63.2372 80.5628 62.0503 79.6473 61.3179L77.8039 59.8432ZM76.1469 38.7876C76.7469 38.7876 77.3463 38.6046 77.8042 38.2383L79.6473 36.7636C80.5628 36.0311 80.5628 34.8443 79.6473 34.1118C78.7321 33.3794 77.2485 33.3794 76.3329 34.1118L74.4899 35.5865C73.5746 36.319 73.5746 37.5058 74.4899 38.2383C74.9475 38.6046 75.5469 38.7876 76.1469 38.7876ZM60.9864 33.7633C62.281 33.7633 63.3304 32.9238 63.3304 31.8883V29.8036C63.3304 28.7679 62.2813 27.9286 60.9864 27.9286C59.6923 27.9286 58.6426 28.7679 58.6426 29.8036V31.8883C58.6423 32.924 59.6923 33.7633 60.9864 33.7633ZM88.845 49.0413C88.845 61.33 76.3479 71.3278 60.9864 71.3278C45.6248 71.3278 33.1277 61.33 33.1277 49.0413C33.1277 36.7516 45.6248 26.7539 60.9864 26.7539C76.3479 26.7539 88.845 36.7516 88.845 49.0413ZM93.5322 49.0413C93.5322 63.3982 78.9324 75.078 60.9864 75.078C43.0403 75.078 28.4404 63.3982 28.4404 49.0413C28.4404 34.6844 43.0403 23.0046 60.9864 23.0046C78.9324 23.0046 93.5322 34.6844 93.5322 49.0413ZM30.2331 27.4045C31.3895 26.3545 32.6284 25.3629 33.9412 24.4385L32.8953 23.6013L29.1872 26.5673L30.2331 27.4045ZM58.3646 16.3303C59.2318 16.2862 60.1054 16.2607 60.9869 16.2607C61.8676 16.2607 62.7412 16.286 63.6087 16.3303V14.6041H58.3646V16.3303ZM54.4441 10.8539H67.5283L67.5286 8.62474H54.4444L54.4441 10.8539ZM88.0318 24.4385C89.3448 25.3629 90.5835 26.3543 91.7393 27.4045L92.7858 26.5673L89.0777 23.6013L88.0318 24.4385ZM97.2738 49.0413C97.2738 65.0482 80.9955 78.0705 60.9869 78.0705C40.9783 78.0705 24.6995 65.0482 24.6995 49.0413C24.6995 33.0333 40.9781 20.0111 60.9869 20.0111C80.9958 20.0111 97.2738 33.0333 97.2738 49.0413ZM20.0114 49.0413C20.0114 42.1111 22.7155 35.6784 27.321 30.3783L25.5163 28.9345C24.7274 28.3036 24.2923 27.4631 24.2923 26.5675C24.2923 25.6729 24.7274 24.8325 25.5163 24.2015L29.9369 20.6641C31.5682 19.3603 34.2225 19.3603 35.8531 20.6641L37.6578 22.1081C42.3752 19.4852 47.8101 17.6332 53.6765 16.7838V14.5933C51.4927 14.4764 49.756 12.9321 49.756 11.0461V8.43372C49.756 6.47036 51.633 4.87427 53.9396 4.87427H68.0322C70.3394 4.87427 72.2161 6.47036 72.2161 8.43372V11.0456C72.2161 12.9318 70.4797 14.4759 68.2956 14.5929V16.7833C74.1623 17.6327 79.5972 19.4845 84.3149 22.1076L86.1196 20.6636C86.9079 20.0327 87.9588 19.6854 89.0777 19.6854C90.1956 19.6854 91.2465 20.0327 92.0355 20.6636L96.4567 24.2011C98.0879 25.5061 98.0879 27.6293 96.4567 28.934L94.652 30.3778C99.2569 35.6777 101.961 42.1106 101.961 49.0408C101.961 67.1149 83.5804 81.8203 60.9869 81.8203C38.3935 81.8203 20.0114 67.1154 20.0114 49.0413ZM97.7698 83.0782C95.932 80.6229 90.9453 80.9693 84.4318 84.0035L61.2691 94.7965C57.6389 96.4872 53.7521 97.0333 49.3874 96.4664C44.8118 95.8697 40.3824 94.9331 35.9276 93.9152C34.3177 93.5479 32.6525 93.1673 30.9579 92.8045C29.7075 92.5366 28.9657 91.5084 29.3003 90.5081C29.6358 89.5076 30.9204 88.9153 32.1708 89.1822C33.9023 89.5528 35.5865 89.9379 37.2146 90.3096C40.6329 91.0905 43.8641 91.8286 47.2581 92.3875C49.1545 92.5607 51.5322 92.2795 52.2913 90.0138C52.867 88.293 51.602 86.546 49.3388 85.905C42.377 84.8847 35.6777 82.9467 30.287 81.3881C28.4106 80.8453 26.7907 80.3765 25.3877 80.0126C21.1112 78.903 17.0009 80.381 13.1958 82.1435L-3.8245 90.0279L7.35373 105.828L11.7374 103.804C12.2753 103.555 12.9151 103.488 13.5157 103.617L44.005 110.152C47.8069 110.969 51.3884 110.566 54.6524 108.959L96.6869 88.252C98.4814 87.3689 99.0275 84.757 97.7698 83.0782ZM7.15451 113.161C7.34142 113.424 7.29454 113.679 7.24972 113.808C7.2049 113.936 7.08155 114.174 6.75138 114.323L0.251869 117.266C-0.0783062 117.415 -0.396471 117.377 -0.557018 117.342C-0.717566 117.307 -1.01464 117.208 -1.20126 116.944L-20.3084 89.9355C-20.5929 89.5329 -20.4086 89.0001 -19.9056 88.7718L-13.4063 85.8302C-13.2226 85.7463 -13.0431 85.721 -12.8916 85.721C-12.7709 85.721 -12.6686 85.7376 -12.5969 85.7531C-12.4363 85.7894 -12.1395 85.8876 -11.9526 86.1525L7.15451 113.161ZM99.1447 91.4456C103.103 89.4965 104.365 84.5892 101.791 81.1511C100.545 79.4857 95.4377 74.5364 82.0728 80.763L58.9095 91.5572C57.9805 91.9896 57.0395 92.3193 56.07 92.5465C56.3791 92.0679 56.6314 91.5461 56.8192 90.9846C58.0429 87.3302 55.3326 83.516 50.6492 82.3017C50.549 82.2752 50.4462 82.2553 50.3428 82.2398C43.7085 81.2824 37.1501 79.3863 31.8808 77.8619C30.0447 77.3304 28.3104 76.8295 26.8335 76.4456C20.7954 74.8793 15.3638 76.8063 10.8468 78.8988L-6.13368 86.7644L-7.87304 84.3047C-8.62831 83.238 -9.86141 82.4681 -11.3453 82.1395C-12.8286 81.8109 -14.3808 81.9618 -15.7146 82.5663L-22.2144 85.5093C-24.9751 86.759 -25.9501 89.5727 -24.3877 91.7822L-5.28114 118.791C-4.22323 120.285 -2.27089 121.126 -0.263758 121.126C0.695423 121.126 1.66808 120.934 2.56046 120.53L9.05968 117.587C10.3944 116.983 11.3551 115.997 11.7667 114.81C12.1783 113.623 11.9891 112.381 11.2335 111.313L9.66232 109.093L13.2395 107.441L42.7915 113.775C44.4535 114.131 46.107 114.309 47.7336 114.309C51.0242 114.309 54.2029 113.584 57.1086 112.152L99.1447 91.4456ZM-11.2595 91.1929C-11.456 90.1165 -12.7108 89.3686 -14.057 89.5263C-15.4029 89.6829 -16.3378 90.6879 -16.1412 91.7643C-15.9619 92.745 -14.9052 93.4521 -13.7019 93.4521C-13.5833 93.4521 -13.4638 93.4455 -13.3431 93.4322C-11.9974 93.2744 -11.0623 92.2697 -11.2595 91.1929Z" fill="black"/>
</g>
<defs>
<clipPath id="clip0_388_8705">
<rect width="150" height="120" fill="white"/>
</clipPath>
</defs>
</svg>
