<svg width="1702" height="421" viewBox="0 0 1702 421" fill="none" xmlns="http://www.w3.org/2000/svg">
<path d="M617.809 0L850.994 107.243V421H617.809V0Z" fill="#D9D9D9"/>
<path d="M336.004 62.0315L512.827 146.05V421H336.004V62.0315Z" fill="#DC97A5"/>
<path d="M143.709 125.08L266.38 186.047V421H143.709V125.08Z" fill="#F3B8C4" fill-opacity="0.929412"/>
<path d="M19.9336 197.28L97.2937 233.585V421H19.9336V197.28Z" fill="#DC97A5" fill-opacity="0.929412"/>
<path d="M617.809 61.0142L512.82 145.436V421H617.809V61.0142Z" fill="#B83556"/>
<path d="M336.004 129.147L266.38 186.603V421H336.004V129.147Z" fill="#B83556"/>
<path d="M143.709 197.28L97.2929 234.29V421H143.709V197.28Z" fill="#B83556"/>
<path d="M19.8301 242.024L0.00094986 275.99V421H19.8301V242.024Z" fill="#B83556"/>
<path d="M1682.16 242.024L1701.99 275.99V421H1682.16V242.024Z" fill="#B83556"/>
<path d="M617.809 0L850.994 107.243V421H617.809V0Z" fill="#F3B8C4"/>
<path d="M1365.99 62.0315L1189.17 146.05V421H1365.99V62.0315Z" fill="#F3B8C4"/>
<path d="M1558.29 125.08L1435.61 186.047V421H1558.29V125.08Z" fill="#DC97A5"/>
<path d="M1682.06 197.28L1604.7 233.585V421H1682.06V197.28Z" fill="#F3B8C4"/>
<path d="M1084.18 61.0142L1189.17 145.436V421H1084.18V61.0142Z" fill="#B83556"/>
<path d="M1365.99 129.147L1435.62 186.603V421H1365.99V129.147Z" fill="#B83556"/>
<path d="M1558.29 197.28L1604.7 234.29V421H1558.29V197.28Z" fill="#B83556"/>
<path d="M1084.18 0L850.994 107.243V421H1084.18V0Z" fill="#DC97A5"/>
</svg>
