<svg width="1600" height="386" viewBox="0 0 1600 386" fill="none" xmlns="http://www.w3.org/2000/svg">
<path d="M1600 245L1489 278.741L1511 386H1600V245Z" fill="#957C62"/>
<path d="M1600 245L1489 278.741L1511 386H1600V245Z" fill="#957C62"/>
<path d="M0 245L111 278.741L90 386H0V245Z" fill="#957C62"/>
<path d="M0 245L111 278.741L90 386H0V245Z" fill="#957C62"/>
<path d="M90 149L406.416 229.189L283 386H90V149Z" fill="#B77466"/>
<path d="M90 149L406.416 229.189L283 386H90V149Z" fill="#B77466"/>
<path d="M283 65L527 139.461V386H283V65Z" fill="#E2B59A"/>
<path d="M283 65L527 139.461V386H283V65Z" fill="#E2B59A"/>
<path d="M527 1L800 122V386H527V1Z" fill="#FFE1AF"/>
<path d="M527 1L800 122V386H527V1Z" fill="#FFE1AF"/>
<path d="M1511 149L1193.98 229.189L1317 386H1511V149Z" fill="#B77466"/>
<path d="M1511 149L1193.98 229.189L1317 386H1511V149Z" fill="#B77466"/>
<path d="M1317 65L1073 139.461V386H1317V65Z" fill="#E2B59A"/>
<path d="M1317 65L1073 139.461V386H1317V65Z" fill="#E2B59A"/>
<path d="M1073 0L800.5 122V386H1073V0Z" fill="#FFE1AF"/>
<path d="M1073 0L800.5 122V386H1073V0Z" fill="#FFE1AF"/>
<line x1="800.25" y1="122" x2="800.25" y2="386" stroke="black" stroke-width="0.5"/>
</svg>
