<svg width="142" height="142" viewBox="0 0 142 142" fill="none" xmlns="http://www.w3.org/2000/svg">
<path d="M103.172 32.161C103.17 25.372 101.02 18.7577 97.0298 13.2648C93.04 7.77191 87.4148 3.68196 80.9593 1.58033C74.5037 -0.521306 67.5488 -0.526896 61.0899 1.56436C54.631 3.65561 48.9992 7.73651 45.0006 13.223C41.0019 18.7095 38.8414 25.3203 38.8282 32.1093C38.815 38.8983 40.9498 45.5174 44.9271 51.0194C48.9043 56.5214 54.5202 60.6242 60.9709 62.7406C67.4216 64.857 74.3765 64.8784 80.8402 62.8019C87.3277 60.7178 92.986 56.6275 96.9994 51.1208C101.013 45.614 103.174 38.9751 103.172 32.161ZM43.2656 32.161C43.2656 26.6757 44.8922 21.3135 47.9397 16.7526C50.9872 12.1917 55.3187 8.63693 60.3865 6.53778C65.4543 4.43863 71.0308 3.8894 76.4107 4.95954C81.7906 6.02967 86.7324 8.67112 90.6112 12.5498C94.4899 16.4286 97.1313 21.3703 98.2015 26.7503C99.2716 32.1302 98.7224 37.7067 96.6232 42.7745C94.5241 47.8423 90.9693 52.1738 86.4084 55.2213C81.8475 58.2688 76.4853 59.8954 71 59.8954C63.6444 59.8954 56.59 56.9734 51.3888 51.7722C46.1876 46.571 43.2656 39.5166 43.2656 32.161ZM69.1473 110.194H59.7842C60.1929 108.576 60.4126 106.916 60.4388 105.247C60.1503 102.54 59.4847 96.2052 54.5369 93.931C53.2171 93.3195 51.7498 93.099 50.3087 93.2956C48.8675 93.4922 47.5129 94.0977 46.4052 95.0404C43.432 97.5143 43.5984 100.953 43.6872 102.806V105.025C43.0327 106.656 40.2148 111.237 39.2497 112.79L38.7837 113.545V110.927C38.7837 110.338 38.55 109.774 38.1339 109.358C37.7178 108.942 37.1534 108.708 36.565 108.708H25.5156C24.9272 108.708 24.3628 108.942 23.9467 109.358C23.5306 109.774 23.2969 110.338 23.2969 110.927V139.77C23.2969 140.359 23.5306 140.923 23.9467 141.339C24.3628 141.755 24.9272 141.989 25.5156 141.989H36.6094C37.089 141.986 37.5547 141.828 37.9367 141.538C38.3186 141.248 38.5964 140.842 38.7283 140.381C39.2382 140.408 39.7493 140.408 40.2592 140.381C41.1057 140.989 42.0464 141.453 43.0438 141.756C43.4296 141.867 43.8292 141.923 44.2308 141.923H64.7542C65.5309 141.926 66.3029 141.803 67.0395 141.556C68.5217 141.082 69.8154 140.15 70.7343 138.894C71.6533 137.639 72.1503 136.124 72.1537 134.567C72.1707 134.253 72.1707 133.939 72.1537 133.624C72.9136 132.781 73.4674 131.773 73.7716 130.68C74.0758 129.587 74.122 128.438 73.9066 127.323C74.8851 126.051 75.4155 124.491 75.4153 122.886C75.4166 122.352 75.3608 121.821 75.2489 121.299C76.1027 120.072 76.556 118.612 76.5469 117.117C76.5469 113.145 73.363 110.194 69.1473 110.194ZM69.1473 120.035H68.4152C69.1641 120.123 69.85 120.497 70.3288 121.08C70.8075 121.663 71.0421 122.408 70.9833 123.16C70.9245 123.912 70.5768 124.612 70.0132 125.113C69.4496 125.614 68.7139 125.877 67.9603 125.848H66.7178C67.4629 125.907 68.1573 126.248 68.6588 126.802C69.1603 127.356 69.431 128.081 69.4154 128.828C69.3998 129.576 69.0991 130.289 68.5749 130.822C68.0507 131.354 67.3427 131.666 66.5958 131.694H64.8873C65.6327 131.754 66.327 132.096 66.8279 132.652C67.3288 133.207 67.5984 133.933 67.5814 134.68C67.5644 135.428 67.262 136.141 66.7364 136.672C66.2107 137.204 65.5015 137.515 64.7542 137.541H44.2641C43.2323 137.252 42.478 136.431 41.4906 136.032C41.2654 135.957 41.0288 135.924 40.7917 135.932C40.1378 135.972 39.482 135.972 38.8281 135.932V119.081C38.8281 119.081 41.7458 117.306 41.8345 117.106C42.2117 116.263 48.158 107.221 48.158 105.446V103.594C48.158 101.763 47.6698 99.6997 49.2673 98.4018C49.7368 97.9955 50.3163 97.7375 50.9324 97.6605C51.5484 97.5835 52.1735 97.6909 52.7286 97.9691C55.2469 99.0785 55.8127 103.305 56.0567 105.735C56.1898 107.022 54.3483 114.177 54.0044 114.61H69.1473C70.7892 114.61 72.1094 115.475 72.1094 117.095C72.1094 117.483 72.0326 117.867 71.8835 118.225C71.7344 118.583 71.5158 118.908 71.2405 119.181C70.9651 119.455 70.6384 119.671 70.2792 119.817C69.9199 119.964 69.5353 120.038 69.1473 120.035ZM2.21875 118.692H16.6406C17.2291 118.692 17.7934 118.458 18.2095 118.042C18.6256 117.626 18.8594 117.062 18.8594 116.473C18.8594 115.885 18.6256 115.321 18.2095 114.905C17.7934 114.488 17.2291 114.255 16.6406 114.255H2.21875C1.6303 114.255 1.06595 114.488 0.649857 114.905C0.233761 115.321 0 115.885 0 116.473C0 117.062 0.233761 117.626 0.649857 118.042C1.06595 118.458 1.6303 118.692 2.21875 118.692ZM2.21875 136.442H16.6406C17.2291 136.442 17.7934 136.208 18.2095 135.792C18.6256 135.376 18.8594 134.812 18.8594 134.223C18.8594 133.635 18.6256 133.071 18.2095 132.655C17.7934 132.238 17.2291 132.005 16.6406 132.005H2.21875C1.6303 132.005 1.06595 132.238 0.649857 132.655C0.233761 133.071 0 133.635 0 134.223C0 134.812 0.233761 135.376 0.649857 135.792C1.06595 136.208 1.6303 136.442 2.21875 136.442ZM16.6406 123.13H11.0938C10.5053 123.13 9.94095 123.363 9.52486 123.78C9.10876 124.196 8.875 124.76 8.875 125.348C8.875 125.937 9.10876 126.501 9.52486 126.917C9.94095 127.333 10.5053 127.567 11.0938 127.567H16.6406C17.2291 127.567 17.7934 127.333 18.2095 126.917C18.6256 126.501 18.8594 125.937 18.8594 125.348C18.8594 124.76 18.6256 124.196 18.2095 123.78C17.7934 123.363 17.2291 123.13 16.6406 123.13Z" fill="black"/>
<path d="M71 68.7812C70.0127 68.7812 69.0364 68.7812 68.0602 68.6481L63.6227 98.4792C64.2698 100.534 64.6866 102.655 64.8652 104.803C64.8836 105.124 64.8836 105.446 64.8652 105.768H69.1252C75.1934 105.768 79.9083 109.717 80.7958 115.22L74.2505 68.6259C73.2188 68.7258 72.1094 68.7812 71 68.7812ZM43.5762 91.5789C45.5646 89.8977 48.0438 88.9053 50.643 88.75H51.2198C53.0034 88.7375 54.7681 89.1162 56.3895 89.8594C57.7408 90.4779 58.9696 91.3347 60.0172 92.3887L63.667 67.9825C57.5618 66.7442 51.8752 63.9639 47.1484 59.9062H46.5938C27.0466 59.9062 11.0938 76.1586 11.0938 96.1384V104.281H36.6094C37.3895 104.281 38.1633 104.42 38.8947 104.692C39.0389 104.425 39.172 104.181 39.283 103.96V102.983C39.1609 100.953 38.8947 95.4839 43.5762 91.5789ZM103.172 84.257L101.02 88.8277L95.9609 89.6042L99.633 93.3539L98.7898 98.4792L103.172 96.0719L107.554 98.4792L106.711 93.3539L110.383 89.6042L105.324 88.8277L103.172 84.257Z" fill="black"/>
<path d="M131.261 134.545V96.1384C131.261 76.1586 115.308 59.9062 95.7612 59.9062H95.2066C94.467 60.5497 93.6904 61.1672 92.8769 61.7589C88.7513 64.7729 84.038 66.8858 79.043 67.9603L85.6992 115.797C85.7502 116.167 85.7068 116.544 85.5729 116.893C85.4391 117.242 85.2192 117.552 84.9337 117.793L80.3298 121.71C80.2522 121.898 80.1745 122.109 80.0858 122.297C79.997 122.486 80.0858 122.719 80.0858 122.941C80.0908 124.875 79.6183 126.78 78.7102 128.488V128.798C78.713 131.039 78.0739 133.233 76.8686 135.122C76.7835 137.628 75.8926 140.04 74.3281 142H123.917C125.879 141.982 127.753 141.188 129.13 139.79C130.507 138.393 131.273 136.507 131.261 134.545ZM115.863 90.7025L111.803 94.8516L112.768 100.72C112.862 101.174 112.854 101.644 112.744 102.095C112.635 102.545 112.427 102.966 112.136 103.327C111.878 103.628 111.558 103.869 111.198 104.034C110.838 104.199 110.446 104.283 110.05 104.281C109.481 104.274 108.923 104.121 108.43 103.837L103.527 101.131L98.6123 103.837C98.0332 104.195 97.3477 104.339 96.6735 104.246C95.9994 104.153 95.3787 103.828 94.9181 103.327C94.6267 102.966 94.4188 102.545 94.3095 102.095C94.2001 101.644 94.192 101.174 94.2858 100.72L95.2509 94.8516L91.1906 90.7025C90.7743 90.3151 90.4754 89.8183 90.3283 89.2689C90.1811 88.7196 90.1916 88.1399 90.3586 87.5962C90.547 87.0678 90.8817 86.6038 91.3236 86.2581C91.7655 85.9125 92.2964 85.6994 92.8547 85.6437L98.4016 84.8006L100.887 79.5089C101.089 78.9628 101.453 78.4918 101.931 78.1591C102.409 77.8264 102.978 77.6481 103.56 77.6481C104.142 77.6481 104.711 77.8264 105.189 78.1591C105.667 78.4918 106.031 78.9628 106.234 79.5089L108.719 84.8006L114.266 85.6437C114.817 85.7149 115.338 85.94 115.767 86.2931C116.197 86.6463 116.519 87.1133 116.695 87.6406C116.853 88.178 116.859 88.7487 116.712 89.2892C116.565 89.8298 116.271 90.319 115.863 90.7025Z" fill="black"/>
</svg>
