<svg width="133" height="121" viewBox="0 0 133 121" fill="none" xmlns="http://www.w3.org/2000/svg">
<path d="M53.5004 27C43.9584 26.9986 34.7076 30.1385 27.3061 35.8908C19.9046 41.6432 14.8048 49.6565 12.8658 58.5808C10.9268 67.5051 12.2671 76.795 16.6609 84.8857C21.0547 92.9764 28.2335 99.3733 36.988 102.999C37.7296 101.616 38.2394 100.131 38.499 98.5979C38.2152 98.6362 37.929 98.6559 37.6424 98.6569H37.6371C36.5368 98.6528 35.4561 98.3787 34.4987 97.8607C33.5413 97.3428 32.7393 96.5984 32.1699 95.6991C24.915 84.173 28.4945 72.4996 32.7317 65.7049C32.5593 44.1895 48.3396 32.1471 50.7817 30.4151C51.5638 29.8483 52.5186 29.5415 53.5004 29.5415C54.4821 29.5415 55.437 29.8483 56.2191 30.4151C58.6611 32.1471 74.4414 44.1895 74.268 65.7049C78.5062 72.4996 82.0858 84.173 74.8298 95.6991C74.2609 96.598 73.4596 97.342 72.503 97.86C71.5464 98.3779 70.4664 98.6523 69.3668 98.6569H69.3583C69.0707 98.656 68.7834 98.6363 68.4986 98.5979C68.7559 100.132 69.2659 101.618 70.0095 103C78.7644 99.3748 85.9438 92.9782 90.3381 84.8876C94.7324 76.797 96.0732 67.5069 94.1346 58.5824C92.1959 49.6579 87.0963 41.6443 79.6949 35.8916C72.2934 30.1389 63.0425 26.9987 53.5004 27Z" fill="black"/>
<path d="M36.4468 92.9976C36.6291 93.303 36.8866 93.5557 37.1945 93.7313C37.5023 93.9069 37.8499 93.9995 38.2037 94H38.2058C38.5592 94 38.9067 93.9081 39.2145 93.7332C39.5223 93.5583 39.78 93.3064 39.9627 93.0018L43.3001 87.4423C43.3565 87.5621 43.4089 87.68 43.4664 87.7998H63.5337C63.5911 87.68 63.6435 87.5621 63.6999 87.4423L67.0373 93.0018C67.22 93.3064 67.4777 93.5583 67.7855 93.7332C68.0933 93.9081 68.4408 94 68.7942 94H68.7963C69.1501 93.9995 69.4977 93.9069 69.8055 93.7313C70.1134 93.5557 70.3709 93.303 70.5532 92.9976C77.5358 81.3031 72.2116 70.2926 69.3761 65.8254C69.5911 59.3471 68.2787 52.9097 65.5464 47.0406C62.8141 41.1716 58.7397 36.0379 53.657 32.0602C53.6138 32.0214 53.5579 32 53.5 32C53.4421 32 53.3862 32.0214 53.343 32.0602C48.2603 36.0379 44.1859 41.1716 41.4536 47.0406C38.7213 52.9097 37.4089 59.3471 37.6239 65.8254C34.7884 70.2926 29.4642 81.3031 36.4468 92.9976ZM68.5069 73.217C70.3148 77.845 70.3532 82.9838 68.6146 87.6386L65.7021 82.787C66.9136 79.6863 67.8518 76.4843 68.5058 73.218L68.5069 73.217ZM44.8056 49.5117C46.8775 44.9106 49.8323 40.7673 53.5 37.32C57.1676 40.767 60.1223 44.9099 62.1944 49.5106C66.7509 59.7306 66.3148 71.2112 60.9044 83.6664H46.0956C40.6852 71.2112 40.2491 59.7306 44.8056 49.5106V49.5117ZM38.4767 73.1343C39.1314 76.4296 40.0755 79.6599 41.2979 82.787L38.3823 87.6438C36.6045 82.9671 36.6382 77.7872 38.4767 73.1343Z" fill="black"/>
<path d="M53.0056 71C54.7854 70.9991 56.5249 70.5584 58.0042 69.7337C59.4835 68.9091 60.6362 67.7374 61.3165 66.3669C61.9969 64.9964 62.1743 63.4885 61.8264 62.034C61.4785 60.5794 60.6209 59.2435 59.362 58.195C58.1031 57.1466 56.4994 56.4328 54.7537 56.1438C53.0081 55.8548 51.1988 56.0036 49.5546 56.5714C47.9103 57.1392 46.5051 58.1005 45.5164 59.3337C44.5277 60.567 44 62.0168 44 63.5C44.0036 65.489 44.9537 67.3957 46.642 68.8017C48.3302 70.2077 50.6188 70.9983 53.0056 71Z" fill="black"/>
<path d="M39.1156 120.457C39.5208 120.826 40.0579 121.02 40.6085 120.998C41.1592 120.976 41.6784 120.739 42.052 120.339C49.1955 112.688 48.8464 104.813 48.8277 104.482C48.799 103.939 48.5529 103.429 48.1434 103.065C47.7339 102.701 47.1946 102.512 46.6441 102.54C46.0937 102.569 45.5771 102.812 45.2081 103.216C44.8392 103.62 44.648 104.152 44.6767 104.695C44.6891 104.959 44.8949 111.241 38.9951 117.56C38.6217 117.96 38.4246 118.49 38.4472 119.034C38.4698 119.577 38.7102 120.089 39.1156 120.457ZM63.5024 102.546C62.9527 102.519 62.4146 102.708 62.0047 103.07C61.5948 103.433 61.3463 103.94 61.3131 104.482C61.2944 104.813 60.9452 112.688 68.0888 120.339C68.4631 120.736 68.9812 120.97 69.5299 120.99C70.0786 121.011 70.6132 120.817 71.0171 120.449C71.4209 120.082 71.6611 119.572 71.6852 119.031C71.7093 118.49 71.5154 117.961 71.1457 117.56C65.2594 111.255 65.4516 104.987 65.4631 104.696C65.4905 104.155 65.2996 103.625 64.932 103.222C64.5643 102.819 64.0499 102.576 63.5013 102.546H63.5024ZM52.9923 103.568V113.651C52.9923 114.195 53.2112 114.717 53.6009 115.102C53.9907 115.486 54.5192 115.702 55.0704 115.702C55.6215 115.702 56.1501 115.486 56.5398 115.102C56.9296 114.717 57.1485 114.195 57.1485 113.651V103.568C57.1485 103.024 56.9296 102.503 56.5398 102.118C56.1501 101.734 55.6215 101.517 55.0704 101.517C54.5192 101.517 53.9907 101.734 53.6009 102.118C53.2112 102.503 52.9923 103.024 52.9923 103.568ZM130.922 0.000121872H22.8595C22.7233 -0.00145671 22.5873 0.0123046 22.4542 0.0411389C22.3937 0.0520947 22.3345 0.0692791 22.2776 0.0924105C22.2049 0.112919 22.1321 0.133428 22.0698 0.153936C21.9973 0.185353 21.9277 0.223102 21.862 0.266733C21.806 0.285895 21.7534 0.313574 21.7061 0.348767C21.5894 0.42213 21.4814 0.508114 21.384 0.605124L0.61317 21.1034C0.514837 21.1995 0.427707 21.3061 0.353404 21.4213C0.317757 21.468 0.289712 21.5199 0.270279 21.5751C0.226044 21.64 0.187792 21.7086 0.155983 21.7802C0.135201 21.8417 0.11442 21.9135 0.093639 21.9853C0.0701712 22.0414 0.0527575 22.0999 0.041686 22.1596C0.0124682 22.2909 -0.00147608 22.4251 0.000123492 22.5595V84.0852C0.00176804 84.6286 0.221241 85.1493 0.610608 85.5336C0.999976 85.9178 1.5276 86.1344 2.07825 86.1361H12.4793C12.0532 84.7928 11.6896 83.4289 11.3882 82.0343H4.15637V27.82L17.9343 48.3285C18.7552 47.1185 19.6315 45.9495 20.5632 44.8216L6.99301 24.6104H105.226L90.6998 46.2367C91.6038 47.4159 92.4558 48.6362 93.2351 49.8974L108.063 27.82V82.0343H98.7525C98.4512 83.4289 98.0875 84.7928 97.6615 86.1361H110.141C110.277 86.1377 110.413 86.1239 110.546 86.095C110.606 86.0841 110.666 86.067 110.723 86.0438C110.795 86.0233 110.868 86.0028 110.93 85.9822C111.003 85.9508 111.072 85.9131 111.138 85.8694C111.194 85.8503 111.247 85.8226 111.294 85.7874C111.411 85.7141 111.519 85.6281 111.616 85.5311L131.296 66.0992C131.773 66.0136 132.205 65.7657 132.516 65.3985C132.828 65.0313 132.999 64.5681 133 64.0894V2.05098C133 1.50706 132.781 0.985413 132.391 0.600803C132.002 0.216193 131.473 0.000121872 130.922 0.000121872ZM128.844 6.62131L112.067 21.7976C111.913 21.4174 111.647 21.0914 111.304 20.8617C110.961 20.6319 110.555 20.509 110.141 20.5087H107.356L125.494 4.10183H128.844V6.62131Z" fill="black"/>
</svg>
