<svg width="142" height="122" viewBox="0 0 142 122" fill="none" xmlns="http://www.w3.org/2000/svg">
<g clip-path="url(#clip0_379_2112)">
<path d="M141.999 107.561V110.386C141.999 111.924 140.546 113.183 138.771 113.183C136.996 113.183 135.544 111.924 135.544 110.386V107.561C135.544 99.8681 128.315 93.6021 119.44 93.6021H93.5572C84.6822 93.6021 77.4531 99.8681 77.4531 107.561V110.386C77.4531 111.924 76.0009 113.183 74.2259 113.183C72.4509 113.183 70.9986 111.924 70.9986 110.386V107.561C70.9986 96.7771 81.1161 88.0075 93.5572 88.0075H119.424C131.881 88.0075 141.999 96.7771 141.999 107.561ZM141.999 40.4534V57.2372C141.999 58.7757 140.546 60.0345 138.771 60.0345C136.996 60.0345 135.544 58.7757 135.544 57.2372V44.2158L129.09 45.8941V57.2372C129.09 72.9161 119.166 85.2102 106.499 85.2102C93.8316 85.2102 83.9077 72.9161 83.9077 57.2372V45.8941L73.3061 43.1388C71.9345 42.7751 70.9986 41.6842 70.9986 40.4534C70.9986 39.2226 71.9345 38.1316 73.3061 37.768L105.579 29.3761C106.176 29.2222 106.837 29.2222 107.435 29.3761L139.707 37.768C139.74 37.782 139.756 37.796 139.788 37.8099C140.078 37.8939 140.369 38.0057 140.611 38.1596C140.643 38.1736 140.659 38.2016 140.675 38.2155C140.901 38.3554 141.111 38.5372 141.289 38.733C141.321 38.761 141.353 38.803 141.385 38.831C141.563 39.0408 141.692 39.2645 141.789 39.5163C141.805 39.5722 141.821 39.6142 141.837 39.6701C141.934 39.9079 141.999 40.1737 141.999 40.4534ZM122.312 61.587C117.213 63.1815 111.856 63.9647 106.499 63.9647C101.141 63.9647 95.784 63.1675 90.685 61.587C92.2018 71.7272 98.8177 79.6156 106.499 79.6156C114.18 79.6156 120.795 71.7272 122.312 61.587ZM122.635 47.5725L107.418 51.5307C107.128 51.6006 106.805 51.6426 106.499 51.6426C106.192 51.6426 105.869 51.6006 105.579 51.5307L90.3622 47.5725V55.4609C100.593 59.3631 112.405 59.3631 122.635 55.4609V47.5725ZM61.3168 107.589H14.6504C13.6822 107.589 12.9077 106.903 12.9077 106.078V16.7882C12.9077 15.949 13.6984 15.2777 14.6504 15.2777H30.6577V18.089C30.6577 20.3967 32.8199 22.2709 35.4824 22.2709H80.6804C83.3429 22.2709 85.5052 20.3967 85.5052 18.089V15.2777H101.512C102.481 15.2777 103.255 15.963 103.255 16.7882V20.8723C103.255 22.4108 104.707 23.6696 106.482 23.6696C108.257 23.6696 109.71 22.4108 109.71 20.8723V16.7882C109.71 12.872 106.031 9.68307 101.512 9.68307H85.5213V9.66908C85.5213 7.36131 83.359 5.48712 80.6965 5.48712H69.272C68.4813 0.745693 63.7695 -2.90479 58.0895 -2.90479C52.4095 -2.90479 47.6977 0.745693 46.907 5.48712H35.4824C32.8199 5.48712 30.6577 7.36131 30.6577 9.66908V9.68307H14.6504C10.1322 9.68307 6.45312 12.872 6.45312 16.7882V106.064C6.45312 109.98 10.1322 113.169 14.6504 113.169H61.3168C63.0918 113.169 64.544 111.91 64.544 110.372C64.544 108.833 63.0918 107.589 61.3168 107.589ZM47.4556 32.8867C46.197 31.7957 44.1477 31.7957 42.889 32.8867L32.2713 42.0898L28.092 38.4673C26.8334 37.3764 24.784 37.3764 23.5254 38.4673C22.2668 39.5583 22.2668 41.3345 23.5254 42.4255L29.9799 48.0201C30.6254 48.5656 31.4484 48.8453 32.2713 48.8453C33.0943 48.8453 33.9172 48.5656 34.5465 48.0201L47.4556 36.8309C48.7304 35.7399 48.7304 33.9776 47.4556 32.8867ZM61.3168 37.6561H58.0895C56.3145 37.6561 54.8622 38.9149 54.8622 40.4534C54.8622 41.9919 56.3145 43.2507 58.0895 43.2507H61.3168C63.0918 43.2507 64.544 41.9919 64.544 40.4534C64.544 38.9149 63.0918 37.6561 61.3168 37.6561ZM47.4556 58.0624C46.197 56.9715 44.1477 56.9715 42.889 58.0624L32.2713 67.2655L28.092 63.643C26.8334 62.5521 24.784 62.5521 23.5254 63.643C22.2668 64.734 22.2668 66.5103 23.5254 67.6012L29.9799 73.1958C30.6254 73.7413 31.4484 74.021 32.2713 74.021C33.0943 74.021 33.9172 73.7413 34.5465 73.1958L47.4556 62.0066C48.7304 60.9156 48.7304 59.1534 47.4556 58.0624ZM54.8622 65.6291C54.8622 67.1676 56.3145 68.4264 58.0895 68.4264H74.2259C76.0009 68.4264 77.4531 67.1676 77.4531 65.6291C77.4531 64.0906 76.0009 62.8318 74.2259 62.8318H58.0895C56.3145 62.8318 54.8622 64.0906 54.8622 65.6291ZM42.9052 83.2381L32.2713 92.4412L28.092 88.8187C26.8334 87.7278 24.784 87.7278 23.5254 88.8187C22.2668 89.9097 22.2668 91.686 23.5254 92.7769L29.9799 98.3715C30.6254 98.917 31.4484 99.1967 32.2713 99.1967C33.0943 99.1967 33.9172 98.917 34.5465 98.3715L47.4556 87.1823C48.7143 86.0914 48.7143 84.3151 47.4556 83.2241C46.197 82.1332 44.1638 82.1332 42.9052 83.2381ZM67.7713 88.0075H58.0895C56.3145 88.0075 54.8622 89.2663 54.8622 90.8048C54.8622 92.3433 56.3145 93.6021 58.0895 93.6021H67.7713C69.5463 93.6021 70.9986 92.3433 70.9986 90.8048C70.9986 89.2663 69.5463 88.0075 67.7713 88.0075Z" fill="black"/>
</g>
<defs>
<clipPath id="clip0_379_2112">
<rect width="142" height="122" fill="white"/>
</clipPath>
</defs>
</svg>
