<svg width="171" height="150" viewBox="0 0 171 150" fill="none" xmlns="http://www.w3.org/2000/svg">
<path d="M140.316 73.2394H137.941C136.63 73.2394 135.566 74.1724 135.566 75.3228V107.614C135.566 109.341 133.971 110.739 132.004 110.739H99.9414V87.8228C99.9414 86.6724 98.8779 85.7394 97.5664 85.7394H95.1914C93.8799 85.7394 92.8164 86.6724 92.8164 87.8228V110.739H64.3164V100.323C64.3164 99.1724 63.2529 98.2394 61.9414 98.2394H59.5664C58.2549 98.2394 57.1914 99.1724 57.1914 100.323V110.739H39.3789C37.411 110.739 35.8164 109.341 35.8164 107.614V25.3228C35.8164 24.1724 34.7529 23.2394 33.4414 23.2394H31.0664C29.7549 23.2394 28.6914 24.1724 28.6914 25.3228V107.614C28.6914 112.792 33.4761 116.989 39.3789 116.989H132.004C137.907 116.989 142.691 112.792 142.691 107.614V75.3228C142.691 74.1724 141.628 73.2394 140.316 73.2394Z" fill="#161D26"/>
<path d="M50.7154 88.2365C51.6419 89.0502 53.146 89.0502 54.0739 88.2365L78.3759 66.919L94.5092 81.0711C95.4357 81.8848 96.9398 81.8848 97.8677 81.0711L121.02 60.7617L120.928 66.6098C120.91 67.7594 121.959 68.7054 123.27 68.7217L125.644 68.7502C126.955 68.7654 128.034 67.8459 128.051 66.6954L128.265 53.1548C128.291 51.4296 126.719 50.0115 124.752 49.9881L109.315 49.8011C108.004 49.7848 106.926 50.7044 106.907 51.8558L106.874 53.9381C106.857 55.0886 107.905 56.0338 109.217 56.05L116.22 56.1344L96.1879 73.7065L80.0545 59.5544C79.1268 58.7406 77.6228 58.7406 76.696 59.5544L49.0356 83.8179C48.1079 84.6317 48.1079 85.95 49.0356 86.764L50.7154 88.2365Z" fill="#161D26"/>
</svg>
