<svg width="149" height="142" viewBox="0 0 149 142" fill="none" xmlns="http://www.w3.org/2000/svg">
<path d="M10.7115 9.28534H13.0667V11.5363C13.0667 12.1582 13.3252 12.7546 13.7853 13.1943C14.2454 13.6341 14.8695 13.8811 15.5201 13.8811C16.1708 13.8811 16.7949 13.6341 17.255 13.1943C17.7151 12.7546 17.9735 12.1582 17.9735 11.5363V9.28534H20.5251C21.1758 9.28534 21.7998 9.0383 22.2599 8.59857C22.72 8.15883 22.9785 7.56243 22.9785 6.94055C22.9785 6.31868 22.72 5.72228 22.2599 5.28254C21.7998 4.84281 21.1758 4.59577 20.5251 4.59577H18.1698V2.34478C18.1698 1.72291 17.9113 1.1265 17.4512 0.686771C16.9911 0.247039 16.3671 0 15.7164 0C15.0657 0 14.4417 0.247039 13.9816 0.686771C13.5215 1.1265 13.263 1.72291 13.263 2.34478V4.59577H10.7115C10.0608 4.59577 9.43674 4.84281 8.97664 5.28254C8.51654 5.72228 8.25806 6.31868 8.25806 6.94055C8.25806 7.56243 8.51654 8.15883 8.97664 8.59857C9.43674 9.0383 10.0608 9.28534 10.7115 9.28534ZM136.718 132.715H134.363V130.464C134.363 129.842 134.105 129.245 133.645 128.806C133.184 128.366 132.56 128.119 131.91 128.119C131.259 128.119 130.635 128.366 130.175 128.806C129.715 129.245 129.456 129.842 129.456 130.464V132.715H127.101C126.45 132.715 125.826 132.962 125.366 133.401C124.906 133.841 124.648 134.438 124.648 135.059C124.648 135.681 124.906 136.278 125.366 136.717C125.826 137.157 126.45 137.404 127.101 137.404H129.456V139.655C129.456 140.277 129.715 140.874 130.175 141.313C130.635 141.753 131.259 142 131.91 142C132.56 142 133.184 141.753 133.645 141.313C134.105 140.874 134.363 140.277 134.363 139.655V137.404H136.718C137.369 137.404 137.993 137.157 138.453 136.717C138.913 136.278 139.172 135.681 139.172 135.059C139.172 134.438 138.913 133.841 138.453 133.401C137.993 132.962 137.369 132.715 136.718 132.715ZM140.448 105.609H139.564C141.261 103.549 142.193 101.009 142.214 98.3871V30.7635C142.214 27.6044 140.901 24.5747 138.564 22.3408C136.226 20.107 133.056 18.852 129.751 18.852H19.2984C15.9929 18.852 12.8228 20.107 10.4855 22.3408C8.14817 24.5747 6.83508 27.6044 6.83508 30.7635V98.3402C6.85569 100.962 7.78782 103.502 9.48476 105.562H8.55246C6.22848 105.724 4.05486 106.721 2.46835 108.352C0.881846 109.983 0 112.128 0 114.355C0 116.582 0.881846 118.727 2.46835 120.358C4.05486 121.989 6.22848 122.986 8.55246 123.148H140.448C142.772 122.986 144.945 121.989 146.532 120.358C148.118 118.727 149 116.582 149 114.355C149 112.128 148.118 109.983 146.532 108.352C144.945 106.721 142.772 105.724 140.448 105.562V105.609ZM11.7419 98.3402V30.7635C11.7419 28.8482 12.538 27.0112 13.9551 25.6569C15.3723 24.3025 17.2943 23.5416 19.2984 23.5416H129.702C131.706 23.5416 133.628 24.3025 135.045 25.6569C136.462 27.0112 137.258 28.8482 137.258 30.7635V98.3402C137.258 100.256 136.462 102.092 135.045 103.447C133.628 104.801 131.706 105.562 129.702 105.562H19.2984C17.2943 105.562 15.3723 104.801 13.9551 103.447C12.538 102.092 11.7419 100.256 11.7419 98.3402ZM140.448 118.458H8.55246C7.98756 118.446 7.4308 118.327 6.91444 118.108C6.39809 117.889 5.93243 117.573 5.54446 117.181C5.15649 116.788 4.85393 116.326 4.65433 115.821C4.45472 115.316 4.36205 114.777 4.38167 114.238C4.39442 113.184 4.83793 112.178 5.61736 111.433C6.39679 110.688 7.45026 110.264 8.55246 110.252H140.448C141.012 110.264 141.569 110.383 142.086 110.602C142.602 110.821 143.068 111.137 143.456 111.529C143.844 111.922 144.146 112.384 144.346 112.889C144.545 113.395 144.638 113.933 144.618 114.472C144.618 115.534 144.181 116.553 143.4 117.308C142.619 118.063 141.558 118.493 140.448 118.505V118.458Z" fill="black"/>
<path d="M74.5106 42.8626C69.6583 42.8626 64.9148 44.2378 60.8802 46.8143C56.8456 49.3908 53.701 53.0528 51.8441 57.3373C49.9872 61.6219 49.5013 66.3364 50.448 70.8849C51.3946 75.4333 53.7313 79.6113 57.1624 82.8905C60.5936 86.1698 64.9651 88.403 69.7243 89.3077C74.4834 90.2125 79.4164 89.7481 83.8994 87.9734C88.3824 86.1987 92.2141 83.1933 94.91 79.3373C97.6058 75.4814 99.0447 70.948 99.0447 66.3104C99.0447 60.0917 96.4599 54.1276 91.8588 49.7303C87.2578 45.333 81.0175 42.8626 74.5106 42.8626ZM93.6472 63.7312H88.2006C88.02 59.1086 86.8335 54.5728 84.7168 50.4128C87.1739 51.8867 89.2525 53.8703 90.7984 56.2164C92.3443 58.5625 93.318 61.211 93.6472 63.9656V63.7312ZM72.0572 48.4432V63.9656H65.6784C65.593 61.1362 66.115 58.3199 67.2121 55.6906C68.3091 53.0613 69.9581 50.6746 72.0572 48.6777V48.4432ZM72.0572 68.4207V83.7087C69.9581 81.7118 68.3091 79.3251 67.2121 76.6958C66.115 74.0664 65.593 71.2502 65.6784 68.4207H72.0572ZM76.964 83.7087V68.6552H83.3429C83.4282 71.4847 82.9063 74.3009 81.8092 76.9302C80.7121 79.5596 79.0632 81.9463 76.964 83.9432V83.7087ZM76.964 63.7312V48.6777C79.0632 50.6746 80.7121 53.0613 81.8092 55.6906C82.9063 58.3199 83.4282 61.1362 83.3429 63.9656L76.964 63.7312ZM64.2554 50.4128C62.1387 54.5728 60.9522 59.1086 60.7716 63.7312H55.3741C55.7669 61.0634 56.7653 58.5099 58.2995 56.2498C59.8337 53.9896 61.8665 52.0775 64.2554 50.6473V50.4128ZM55.3741 68.6552H60.8206C61.0013 73.2778 62.1878 77.8136 64.3045 81.9736C61.8772 80.5239 59.8169 78.5771 58.2726 76.2739C56.7282 73.9707 55.7382 71.3685 55.3741 68.6552ZM84.8149 81.9736C86.9316 77.8136 88.1181 73.2778 88.2988 68.6552H93.6472C93.2886 71.3645 92.3061 73.9641 90.7705 76.267C89.2348 78.5699 87.184 80.5188 84.7659 81.9736H84.8149Z" fill="black"/>
</svg>
