<svg width="124" height="118" viewBox="0 0 124 118" fill="none" xmlns="http://www.w3.org/2000/svg">
<path d="M16.9848 43.7626H87.6388L80.6608 74.6648H91.3789L98.3569 43.7626H104.618V33.4619H86.7286L67.3114 0L58.2306 5.10916L74.6818 33.4619H29.9418L46.393 5.11431L37.3069 0.0051503L17.8897 33.4619H0V43.7626H6.26664L15.8183 86.0832C16.0765 87.2269 16.7231 88.2497 17.6512 88.9829C18.5794 89.7161 19.7337 90.1157 20.9237 90.1159H68.0072V79.8152H25.1241L16.9848 43.7626ZM116.613 81.3242L94.1565 103.435L82.162 91.625L74.7655 98.9076L94.1565 118L124.009 88.6069L116.613 81.3242Z" fill="black"/>
</svg>
